<?xml version="1.0" encoding="utf-8"?>
<!-- Generator: Adobe Illustrator 20.1.0, SVG Export Plug-In . SVG Version: 6.00 Build 0)  -->
<svg version="1.1" id="Layer_1" xmlns="http://www.w3.org/2000/svg" xmlns:xlink="http://www.w3.org/1999/xlink" x="0px" y="0px"
	 viewBox="0 0 120 120" style="enable-background:new 0 0 120 120;" xml:space="preserve">
<style type="text/css">
	.st0{fill:#515A77;}
	.st1{fill:#F46663;}
</style>
<g id="Stacked_Logo_2_">
	<g>
		<g>
			<path class="st0" d="M8.3,5.9H0.1V0.6h22.7v5.4h-8.2v25.4H8.3V5.9z M8.9,30.6h5V5.3h8.2v-4H0.7v4h8.2V30.6z"/>
		</g>
		<g>
			<path class="st0" d="M36.8,0.6h6.3v13.7h11V0.6h6.3v30.7h-6.3V19.6h-11v11.7h-6.3V0.6z M37.5,30.6h5V19h12.3v11.7h5V1.2h-5v13.7
				H42.5V1.2h-5V30.6z"/>
		</g>
		<g>
			<path class="st0" d="M83.2,0.6v30.7h-6.3V0.6H83.2z M77.5,1.2v29.4h5V1.2H77.5z"/>
		</g>
		<g>
			<path class="st0" d="M98.1,23.1h6.4c0.2,2.2,1.8,3.2,3.9,3.2s3.6-1.3,3.6-3.2c0-2-1.2-3.1-5.4-4.8c-6.1-2.5-8.3-5.4-8.3-9.9
				c0-5,3.7-8.3,9.6-8.3c5.5,0,9.6,3.2,9.6,8.6h-6.4c0-1.9-1.2-3.2-3.3-3.2c-2.1,0-3.1,1.3-3.1,2.8c0,1.8,1.3,2.9,5.6,4.8
				c6.1,2.6,8.1,5.4,8.1,9.7c0,5.4-3.9,9.1-10,9.1C102.1,31.8,98.5,28.1,98.1,23.1z M117.7,22.8c0-4-1.9-6.6-7.7-9.1
				c-4.6-2-6-3.2-6-5.4c0-1.9,1.2-3.5,3.8-3.5c2.2,0,3.6,1.3,3.9,3.2h5.1c-0.4-4.6-4.1-7.3-8.9-7.3c-5.5,0-9,3-9,7.7
				c0,4.2,2.1,6.9,7.9,9.3c4.5,1.8,5.8,3.1,5.8,5.4c0,2.4-1.7,3.9-4.2,3.9c-2.3,0-4-1.1-4.5-3.2h-5.1c0.7,4.1,4,7.4,9.5,7.4
				C114.1,31.2,117.7,27.8,117.7,22.8z"/>
		</g>
	</g>
	<g>
		<g>
			<path class="st0" d="M11.5,87.1H0.1V52.9h11.4c11.1,0,18.6,6.3,18.6,17.1C30.1,80.9,22.6,87.1,11.5,87.1z M11.5,53.6H0.8v32.7
				h10.7c10.7,0,17.8-6,17.8-16.4C29.3,59.6,22.2,53.6,11.5,53.6z M11.6,81.8H6.4V58.1h5.2c6.8,0,12.1,4,12.1,11.9
				C23.7,77.9,18.3,81.8,11.6,81.8z M11.6,58.8H7.1v22.3h4.4c6.4,0,11.4-3.7,11.4-11.1C22.9,62.5,18,58.8,11.6,58.8z"/>
		</g>
		<g>
			<path class="st0" d="M102.2,58.8h-9.1v-6h25.3v6h-9.1v28.2h-7V58.8z M102.9,86.3h5.6V58.1h9.1v-4.5H93.8v4.5h9.1V86.3z"/>
		</g>
		<g>
			<path class="st0" d="M44.7,65c2.1-7.2,8.8-12,16.9-12c8.1,0,14.8,4.8,16.9,12h0.8c-2.1-7.7-9.1-12.8-17.6-12.8
				C53,52.3,46,57.4,43.9,65H44.7z"/>
		</g>
		<g>
			<path class="st0" d="M61.6,82.3c4.4,0,8.3-2.3,10.3-6h-0.9c-2,3.3-5.5,5.3-9.5,5.3c-4,0-7.5-2-9.5-5.3h-0.9
				C53.3,80,57.1,82.3,61.6,82.3z"/>
		</g>
		<g>
			<path class="st0" d="M61.6,57.6c-5,0-9.2,2.9-11,7.4h0.8c1.7-4.1,5.6-6.7,10.2-6.7c4.6,0,8.5,2.6,10.2,6.7h0.8
				C70.8,60.5,66.5,57.6,61.6,57.6z"/>
		</g>
		<g>
			<path class="st0" d="M78,76.3c-2.5,6.4-8.8,10.6-16.4,10.6c-7.6,0-13.9-4.2-16.4-10.6h-0.8c2.6,6.9,9.2,11.3,17.2,11.3
				c8,0,14.6-4.5,17.2-11.3H78z"/>
		</g>
		<g>
			<path class="st1" d="M47,74.1c-2.1,0-3.7-1.7-3.7-3.7c0-2.1,1.7-3.7,3.7-3.7c2.1,0,3.7,1.7,3.7,3.7C50.7,72.4,49,74.1,47,74.1z
				 M47,67.3c-1.7,0-3.1,1.4-3.1,3.1c0,1.7,1.4,3.1,3.1,3.1S50,72,50,70.3C50,68.7,48.7,67.3,47,67.3z"/>
		</g>
		<g>
			<path class="st1" d="M76.2,74.1c-2.1,0-3.7-1.7-3.7-3.7c0-2.1,1.7-3.7,3.7-3.7c2.1,0,3.7,1.7,3.7,3.7
				C79.9,72.4,78.2,74.1,76.2,74.1z M76.2,67.3c-1.7,0-3.1,1.4-3.1,3.1c0,1.7,1.4,3.1,3.1,3.1c1.7,0,3.1-1.4,3.1-3.1
				C79.2,68.7,77.9,67.3,76.2,67.3z"/>
		</g>
	</g>
	<g>
		<g>
			<path class="st1" d="M8.8,115.6H7.3L3,109.8v8.8H0.1v-14.1h2.2l5.8,7.8l5.8-7.8h2.2v14.1h-2.9v-8.8L8.8,115.6z"/>
		</g>
		<g>
			<path class="st1" d="M32.4,104.5h8.7v2.5h-5.8v3.8h4.8v2.5h-4.8v2.9h6v2.5h-8.9V104.5z"/>
		</g>
		<g>
			<path class="st1" d="M61.2,118.6h-4.7v-14.1h4.7c4.6,0,7.7,2.6,7.7,7.1C68.9,116.1,65.8,118.6,61.2,118.6z M61.2,107h-1.8v9.2
				h1.8c2.6,0,4.7-1.5,4.7-4.6C65.9,108.5,63.9,107,61.2,107z"/>
		</g>
		<g>
			<path class="st1" d="M87.1,104.5v14.1h-2.9v-14.1H87.1z"/>
		</g>
		<g>
			<path class="st1" d="M114.5,116.5h-6.1l-0.8,2.1h-3l5.7-14.1h2.3l5.7,14.1h-3L114.5,116.5z M109.4,114.1h4.2l-2.1-5.5
				L109.4,114.1z"/>
		</g>
	</g>
</g>
</svg>
